<svg
  height='50px'
  width='50px'
  fill="currentColor"
  xmlns="http://www.w3.org/2000/svg"
  xmlns:xlink="http://www.w3.org/1999/xlink"
  xml:space="preserve"
  version="1.1"
  style="shape-rendering:geometricPrecision;text-rendering:geometricPrecision;image-rendering:optimizeQuality;"
  viewBox="0 0 846.66 846.66"
  x="0px"
  y="0px"
  fill-rule="evenodd"
  clip-rule="evenodd"
>
  <defs>
    <style type="text/css">.fil0 {fill:currentColor}</style>
  </defs>
  <g>
    <path class="fil0" d="M571.39 308.14c48.14,0 87.17,39.03 87.17,87.17 0,24.07 -9.77,45.85 -25.52,61.62 -0.23,0.23 55.3,41.94 61.66,49.17 12.83,14.57 17.74,29.3 17.74,51.42 0,24.83 8.37,50.97 15.51,73.32 13.29,41.62 10.07,51.52 10.07,93.92l-629.73 0 0 -44.58 65.1 0 35.46 -113.69 32.92 -27.8 -44.88 -118.32 35.78 -13.47 89.21 235.2 -35.79 13.47 -35.76 -94.31 -17.6 12 5.53 106.92 138.07 0c0,-21.94 6.77,-32.41 31.23,-37.39 8.75,-1.79 20.06,-3.18 32.27,-4.66 80.06,-9.81 84.42,-9.42 112.64,-75.24 7.85,-18.31 13.94,-37.61 13.94,-53.81 0,-10.96 -1.4,-19.92 -3.26,-27 -20.79,-1.95 -39.43,-11.2 -53.38,-25.15 -33.87,-33.85 -33.87,-89.41 0,-123.27 15.76,-15.77 37.56,-25.52 61.62,-25.52zm-300.66 -186.24l162.77 0c20.08,0 36.51,16.43 36.51,36.51l0 162.78c0,19.48 -15.47,35.53 -34.73,36.46l0 80.2 -42.86 -80.15 -121.69 0c-20.08,0 -36.51,-16.43 -36.51,-36.51l0 -162.78c0,-20.08 16.43,-36.51 36.51,-36.51zm113.82 40.89l-42.86 159.9 -22.01 -5.86 42.86 -159.93 22.01 5.89zm-69.89 43.51l-32.06 33.5 32.06 33.5 -16.39 15.77 -47.18 -49.27 47.18 -49.27 16.39 15.77zm91.3 -15.77l47.18 49.27 -47.18 49.27 -16.39 -15.77 32.06 -33.5 -32.06 -33.5 16.39 -15.77z"></path>
  </g>
</svg>