<svg
  height='50px'
  width='50px'
  fill="currentColor"
  xmlns="http://www.w3.org/2000/svg"
  xmlns:xlink="http://www.w3.org/1999/xlink"
  xml:space="preserve"
  version="1.1"
  style="shape-rendering:geometricPrecision;text-rendering:geometricPrecision;image-rendering:optimizeQuality;"
  viewBox="0 0 474.16 342.98"
  x="0px"
  y="0px"
  fill-rule="evenodd"
  clip-rule="evenodd"
>
  <defs>
    <style type="text/css">.fil0 {fill:currentColor}</style>
  </defs>
  <g>
    <path class="fil0" d="M33.15 0l329.01 0c18.24,0 33.16,14.92 33.16,33.15l0 34.58 -17.92 0 0 -34.58c0,-8.38 -6.86,-15.23 -15.24,-15.23l-329.01 0c-8.38,0 -15.23,6.85 -15.23,15.23l0 150c0,3.35 2.73,6.09 6.08,6.09l291.93 0 0 86.37 -76.41 0c16.01,58.5 45.26,7.47 65.38,67.37l-214.11 0c17.61,-58.88 49.13,-9.33 65.01,-67.37l-122.65 0c-18.23,0 -33.15,-14.92 -33.15,-33.15l0 -209.31c0,-18.23 14.92,-33.15 33.15,-33.15zm164.51 211.1c11.77,0 21.32,9.55 21.32,21.33 0,11.77 -9.55,21.32 -21.32,21.32 -11.78,0 -21.33,-9.55 -21.33,-21.32 0,-11.78 9.55,-21.33 21.33,-21.33z"></path>
    <path class="fil0" d="M348.23 81.42l107.32 0c10.24,0 18.61,8.37 18.61,18.61l0 217.92c0,10.24 -8.37,18.62 -18.61,18.62l-107.32 0c-10.24,0 -18.62,-8.38 -18.62,-18.62l0 -217.92c0,-10.24 8.38,-18.61 18.62,-18.61zm53.66 216.55c6.8,0 12.32,5.51 12.32,12.32 0,6.8 -5.52,12.32 -12.32,12.32 -6.8,0 -12.32,-5.52 -12.32,-12.32 0,-6.81 5.52,-12.32 12.32,-12.32zm58.59 -184.25l0 170.29 -117.18 0 0 -170.29 117.18 0z"></path>
  </g>
</svg>